<svg xmlns="http://www.w3.org/2000/svg" version="1.1" xmlns:xlink="http://www.w3.org/1999/xlink" xmlns:svgjs="http://svgjs.com/svgjs" width="1440" height="560" preserveAspectRatio="none" viewBox="0 0 1440 560"><g mask="url(&quot;#SvgjsMask1195&quot;)" fill="none"><rect width="1440" height="560" x="0" y="0" fill="rgba(34, 38, 41, 1)"></rect><g mask="url(&quot;#SvgjsMask1196&quot;)"><path d="M1417 273L1391 299L1365 299M1313 273L1287 299L1261 299L1235 299L1209 299M1469 273L1443 273L1417 273L1391 273L1365 273L1339 273L1313 273L1287 273" stroke="rgba(97, 137, 48, 1)" stroke-width="4.33"></path><path d="M1280.5 273 a6.5 6.5 0 1 0 13 0 a6.5 6.5 0 1 0 -13 0zM1358.5 299 a6.5 6.5 0 1 0 13 0 a6.5 6.5 0 1 0 -13 0zM1202.5 299 a6.5 6.5 0 1 0 13 0 a6.5 6.5 0 1 0 -13 0z" fill="rgba(97, 137, 48, 1)"></path><path d="M1443 299L1417 299M1469 299L1443 299L1417 325L1391 325" stroke="rgba(135, 194, 50, 1)" stroke-width="4.33"></path><path d="M1384.5 325 a6.5 6.5 0 1 0 13 0 a6.5 6.5 0 1 0 -13 0zM1410.5 299 a6.5 6.5 0 1 0 13 0 a6.5 6.5 0 1 0 -13 0z" fill="rgba(135, 194, 50, 1)"></path><path d="M1313 247L1287 221L1261 221L1235 221M1339 247L1313 221M1235 247L1209 273M1469 247L1443 247L1417 247L1391 247L1365 247L1339 247L1313 247L1287 247L1261 247L1235 247L1209 247L1183 247" stroke="rgba(135, 194, 50, 1)" stroke-width="4.33"></path><path d="M1176.5 247 a6.5 6.5 0 1 0 13 0 a6.5 6.5 0 1 0 -13 0zM1228.5 221 a6.5 6.5 0 1 0 13 0 a6.5 6.5 0 1 0 -13 0zM1306.5 221 a6.5 6.5 0 1 0 13 0 a6.5 6.5 0 1 0 -13 0zM1202.5 273 a6.5 6.5 0 1 0 13 0 a6.5 6.5 0 1 0 -13 0z" fill="rgba(135, 194, 50, 1)"></path><path d="M1313 377L1287 351L1261 351L1235 351L1209 351M1391 351L1365 351L1339 351M1469 325L1443 325L1417 351L1391 351L1365 377L1339 377L1313 377L1287 377" stroke="rgba(135, 194, 50, 1)" stroke-width="4.33"></path><path d="M1280.5 377 a6.5 6.5 0 1 0 13 0 a6.5 6.5 0 1 0 -13 0zM1202.5 351 a6.5 6.5 0 1 0 13 0 a6.5 6.5 0 1 0 -13 0zM1332.5 351 a6.5 6.5 0 1 0 13 0 a6.5 6.5 0 1 0 -13 0z" fill="rgba(135, 194, 50, 1)"></path><path d="M1287 195L1261 169L1235 169L1209 169M1235 195L1209 195L1183 195L1157 195M1365 221L1339 221M1469 221L1443 221L1417 221L1391 221L1365 221L1339 195L1313 195L1287 195L1261 195L1235 195L1209 221L1183 221L1157 221" stroke="rgba(97, 137, 48, 1)" stroke-width="4.33"></path><path d="M1150.5 221 a6.5 6.5 0 1 0 13 0 a6.5 6.5 0 1 0 -13 0zM1202.5 169 a6.5 6.5 0 1 0 13 0 a6.5 6.5 0 1 0 -13 0zM1150.5 195 a6.5 6.5 0 1 0 13 0 a6.5 6.5 0 1 0 -13 0zM1332.5 221 a6.5 6.5 0 1 0 13 0 a6.5 6.5 0 1 0 -13 0z" fill="rgba(97, 137, 48, 1)"></path><path d="M1131 403L1105 377L1079 377L1053 351L1027 351L1001 351L975 351L949 351L923 351L897 351M949 403L923 429L897 429M1157 403L1131 429L1105 429L1079 429M1027 403L1001 429L975 429L949 429L923 455M1001 403L975 377M1469 351L1443 351L1417 377L1391 377L1365 403L1339 403L1313 403L1287 403L1261 403L1235 403L1209 403L1183 403L1157 403L1131 403L1105 403L1079 403L1053 403L1027 403L1001 403L975 403L949 403L923 403" stroke="rgba(97, 137, 48, 1)" stroke-width="4.33"></path><path d="M916.5 403 a6.5 6.5 0 1 0 13 0 a6.5 6.5 0 1 0 -13 0zM890.5 351 a6.5 6.5 0 1 0 13 0 a6.5 6.5 0 1 0 -13 0zM890.5 429 a6.5 6.5 0 1 0 13 0 a6.5 6.5 0 1 0 -13 0zM1072.5 429 a6.5 6.5 0 1 0 13 0 a6.5 6.5 0 1 0 -13 0zM916.5 455 a6.5 6.5 0 1 0 13 0 a6.5 6.5 0 1 0 -13 0zM968.5 377 a6.5 6.5 0 1 0 13 0 a6.5 6.5 0 1 0 -13 0z" fill="rgba(97, 137, 48, 1)"></path><path d="M1469 195L1443 195L1417 195L1391 195L1365 195L1339 169L1313 169" stroke="rgba(135, 194, 50, 1)" stroke-width="4.33"></path><path d="M1306.5 169 a6.5 6.5 0 1 0 13 0 a6.5 6.5 0 1 0 -13 0z" fill="rgba(135, 194, 50, 1)"></path><path d="M1209 429L1183 429L1157 429M1079 455L1053 481L1027 481L1001 481L975 481L949 481L923 481L897 481M1105 455L1079 481L1053 507M1131 455L1105 481L1079 507M1469 377L1443 377L1417 403L1391 403L1365 429L1339 429L1313 429L1287 429L1261 429L1235 429L1209 429L1183 455L1157 455L1131 455L1105 455L1079 455L1053 455L1027 455L1001 455" stroke="rgba(97, 137, 48, 1)" stroke-width="4.33"></path><path d="M994.5 455 a6.5 6.5 0 1 0 13 0 a6.5 6.5 0 1 0 -13 0zM1150.5 429 a6.5 6.5 0 1 0 13 0 a6.5 6.5 0 1 0 -13 0zM890.5 481 a6.5 6.5 0 1 0 13 0 a6.5 6.5 0 1 0 -13 0zM1046.5 507 a6.5 6.5 0 1 0 13 0 a6.5 6.5 0 1 0 -13 0zM1072.5 507 a6.5 6.5 0 1 0 13 0 a6.5 6.5 0 1 0 -13 0z" fill="rgba(97, 137, 48, 1)"></path><path d="M1313 143L1287 117L1261 117M1339 143L1313 117L1287 91L1261 91L1235 91M1469 169L1443 169L1417 169L1391 169L1365 169L1339 143L1313 143L1287 143" stroke="rgba(97, 137, 48, 1)" stroke-width="4.33"></path><path d="M1280.5 143 a6.5 6.5 0 1 0 13 0 a6.5 6.5 0 1 0 -13 0zM1254.5 117 a6.5 6.5 0 1 0 13 0 a6.5 6.5 0 1 0 -13 0zM1228.5 91 a6.5 6.5 0 1 0 13 0 a6.5 6.5 0 1 0 -13 0z" fill="rgba(97, 137, 48, 1)"></path><path d="M1313 455L1287 481M1417 429L1391 455L1365 481M1261 455L1235 481M1469 403L1443 403L1417 429L1391 429L1365 455L1339 455L1313 455L1287 455L1261 455L1235 455L1209 455L1183 481" stroke="rgba(97, 137, 48, 1)" stroke-width="4.33"></path><path d="M1176.5 481 a6.5 6.5 0 1 0 13 0 a6.5 6.5 0 1 0 -13 0zM1280.5 481 a6.5 6.5 0 1 0 13 0 a6.5 6.5 0 1 0 -13 0zM1358.5 481 a6.5 6.5 0 1 0 13 0 a6.5 6.5 0 1 0 -13 0zM1228.5 481 a6.5 6.5 0 1 0 13 0 a6.5 6.5 0 1 0 -13 0z" fill="rgba(97, 137, 48, 1)"></path><path d="M1417 143L1391 117L1365 117L1339 117L1313 91M1469 143L1443 143L1417 143L1391 143" stroke="rgba(135, 194, 50, 1)" stroke-width="4.33"></path><path d="M1384.5 143 a6.5 6.5 0 1 0 13 0 a6.5 6.5 0 1 0 -13 0zM1306.5 91 a6.5 6.5 0 1 0 13 0 a6.5 6.5 0 1 0 -13 0z" fill="rgba(135, 194, 50, 1)"></path></g></g><defs><mask id="SvgjsMask1195"><rect width="1440" height="560" fill="#ffffff"></rect></mask><mask id="SvgjsMask1196"><rect width="1440" height="560" fill="white"></rect><path d="M1283.75 273 a3.25 3.25 0 1 0 6.5 0 a3.25 3.25 0 1 0 -6.5 0zM1361.75 299 a3.25 3.25 0 1 0 6.5 0 a3.25 3.25 0 1 0 -6.5 0zM1205.75 299 a3.25 3.25 0 1 0 6.5 0 a3.25 3.25 0 1 0 -6.5 0z" fill="black"></path><path d="M1387.75 325 a3.25 3.25 0 1 0 6.5 0 a3.25 3.25 0 1 0 -6.5 0zM1413.75 299 a3.25 3.25 0 1 0 6.5 0 a3.25 3.25 0 1 0 -6.5 0z" fill="black"></path><path d="M1179.75 247 a3.25 3.25 0 1 0 6.5 0 a3.25 3.25 0 1 0 -6.5 0zM1231.75 221 a3.25 3.25 0 1 0 6.5 0 a3.25 3.25 0 1 0 -6.5 0zM1309.75 221 a3.25 3.25 0 1 0 6.5 0 a3.25 3.25 0 1 0 -6.5 0zM1205.75 273 a3.25 3.25 0 1 0 6.5 0 a3.25 3.25 0 1 0 -6.5 0z" fill="black"></path><path d="M1283.75 377 a3.25 3.25 0 1 0 6.5 0 a3.25 3.25 0 1 0 -6.5 0zM1205.75 351 a3.25 3.25 0 1 0 6.5 0 a3.25 3.25 0 1 0 -6.5 0zM1335.75 351 a3.25 3.25 0 1 0 6.5 0 a3.25 3.25 0 1 0 -6.5 0z" fill="black"></path><path d="M1153.75 221 a3.25 3.25 0 1 0 6.5 0 a3.25 3.25 0 1 0 -6.5 0zM1205.75 169 a3.25 3.25 0 1 0 6.5 0 a3.25 3.25 0 1 0 -6.5 0zM1153.75 195 a3.25 3.25 0 1 0 6.5 0 a3.25 3.25 0 1 0 -6.5 0zM1335.75 221 a3.25 3.25 0 1 0 6.5 0 a3.25 3.25 0 1 0 -6.5 0z" fill="black"></path><path d="M919.75 403 a3.25 3.25 0 1 0 6.5 0 a3.25 3.25 0 1 0 -6.5 0zM893.75 351 a3.25 3.25 0 1 0 6.5 0 a3.25 3.25 0 1 0 -6.5 0zM893.75 429 a3.25 3.25 0 1 0 6.5 0 a3.25 3.25 0 1 0 -6.5 0zM1075.75 429 a3.25 3.25 0 1 0 6.5 0 a3.25 3.25 0 1 0 -6.5 0zM919.75 455 a3.25 3.25 0 1 0 6.5 0 a3.25 3.25 0 1 0 -6.5 0zM971.75 377 a3.25 3.25 0 1 0 6.5 0 a3.25 3.25 0 1 0 -6.5 0z" fill="black"></path><path d="M1309.75 169 a3.25 3.25 0 1 0 6.5 0 a3.25 3.25 0 1 0 -6.5 0z" fill="black"></path><path d="M997.75 455 a3.25 3.25 0 1 0 6.5 0 a3.25 3.25 0 1 0 -6.5 0zM1153.75 429 a3.25 3.25 0 1 0 6.5 0 a3.25 3.25 0 1 0 -6.5 0zM893.75 481 a3.25 3.25 0 1 0 6.5 0 a3.25 3.25 0 1 0 -6.5 0zM1049.75 507 a3.25 3.25 0 1 0 6.5 0 a3.25 3.25 0 1 0 -6.5 0zM1075.75 507 a3.25 3.25 0 1 0 6.5 0 a3.25 3.25 0 1 0 -6.5 0z" fill="black"></path><path d="M1283.75 143 a3.25 3.25 0 1 0 6.5 0 a3.25 3.25 0 1 0 -6.5 0zM1257.75 117 a3.25 3.25 0 1 0 6.5 0 a3.25 3.25 0 1 0 -6.5 0zM1231.75 91 a3.25 3.25 0 1 0 6.5 0 a3.25 3.25 0 1 0 -6.5 0z" fill="black"></path><path d="M1179.75 481 a3.25 3.25 0 1 0 6.5 0 a3.25 3.25 0 1 0 -6.5 0zM1283.75 481 a3.25 3.25 0 1 0 6.5 0 a3.25 3.25 0 1 0 -6.5 0zM1361.75 481 a3.25 3.25 0 1 0 6.5 0 a3.25 3.25 0 1 0 -6.5 0zM1231.75 481 a3.25 3.25 0 1 0 6.5 0 a3.25 3.25 0 1 0 -6.5 0z" fill="black"></path><path d="M1387.75 143 a3.25 3.25 0 1 0 6.5 0 a3.25 3.25 0 1 0 -6.5 0zM1309.75 91 a3.25 3.25 0 1 0 6.5 0 a3.25 3.25 0 1 0 -6.5 0z" fill="black"></path></mask></defs></svg>